<svg width="90" height="49" viewBox="0 0 90 49" fill="none" xmlns="http://www.w3.org/2000/svg">
<path d="M16.375 36.8253H25.6975C29.8638 36.8253 34.0836 37.3732 38.1385 38.4174C45.3779 40.2812 52.8267 40.4879 60.1248 39.0274C63.7053 38.3037 67.2198 37.1923 70.4043 35.2693C73.2753 33.5273 76.7939 31.0822 79.1576 28.3373C81.5171 25.5976 83.9756 21.1158 85.7163 17.611C87.2178 14.6025 86.4918 10.9168 84.1241 8.67846C82.7936 7.46564 81.1906 6.81233 79.5453 6.81233C77.9 6.81233 76.2971 7.46564 74.9666 8.67846L67.5127 15.7346C64.6252 18.4743 61.4695 20.9917 57.7117 21.7413C57.2579 21.8292 56.7835 21.9119 56.2885 21.9842M56.2885 21.9842C56.1374 22.0062 55.9861 22.0269 55.8348 22.0463M56.2885 21.9842C56.9488 21.7605 57.5541 21.3341 58.0499 20.7436C58.6715 20.0697 59.1791 19.2466 59.5427 18.3229C59.9063 17.3992 60.1186 16.3936 60.1671 15.3654C60.2155 14.3372 60.0991 13.3072 59.8248 12.3363C59.5504 11.3654 59.1237 10.4732 58.5697 9.71232C58.0321 8.96449 57.4061 8.32464 56.7134 7.81519C45.1758 -0.812376 27.2196 5.75781 16.375 15.3985M56.2885 21.9842C56.1395 22.0249 55.9874 22.0457 55.8348 22.0463M55.8348 22.0463C53.3471 22.3596 50.8408 22.3665 48.352 22.067" stroke="#F2B705" stroke-width="6.5" stroke-linecap="round"/>
<path d="M16.375 11.5577C16.375 7.27527 13.6048 3.80371 10.1875 3.80371C6.77024 3.80371 4 7.27527 4 11.5577V37.4042C4 41.6865 6.77024 45.1581 10.1875 45.1581C13.6048 45.1581 16.375 41.6865 16.375 37.4042V11.5577Z" stroke="#F2B705" stroke-width="6.5"/>
</svg>
