<svg width="235" height="82" viewBox="0 0 235 82" fill="none" xmlns="http://www.w3.org/2000/svg">
<g clip-path="url(#clip0_348_2680)">
<path d="M37.4084 60.3029C52.7785 60.3029 65.2384 47.91 65.2384 32.6226C65.2384 17.3353 52.7785 4.94238 37.4084 4.94238C22.0383 4.94238 9.57837 17.3353 9.57837 32.6226C9.57837 47.91 22.0383 60.3029 37.4084 60.3029Z" fill="url(#paint0_linear_348_2680)"/>
<path d="M55.8505 50.964C66.0357 40.8336 66.0357 24.4091 55.8505 14.2787C45.6654 4.14835 29.1519 4.14835 18.9668 14.2787C8.78161 24.4091 8.78161 40.8336 18.9668 50.964C29.1519 61.0943 45.6654 61.0943 55.8505 50.964Z" fill="white"/>
<path d="M37.4083 58.0414C51.5227 58.0414 62.9646 46.661 62.9646 32.6226C62.9646 18.5842 51.5227 7.20386 37.4083 7.20386C23.294 7.20386 11.8521 18.5842 11.8521 32.6226C11.8521 46.661 23.294 58.0414 37.4083 58.0414Z" fill="url(#paint1_linear_348_2680)"/>
<path fill-rule="evenodd" clip-rule="evenodd" d="M24.8465 23.7816L29.1573 19.4428L33.4579 23.7816L29.1573 28.1204L24.8465 23.7816ZM21.4719 23.8021L29.1573 16.0659L36.8325 23.8021L29.1573 31.5382L21.4719 23.8021Z" fill="#4AAD33"/>
<path d="M42.0692 20.3945L37.7584 16.0557L30.0833 23.802L31.7705 25.4905L37.7584 19.453L40.3922 22.0931L42.0692 20.3945Z" fill="#7A9DB7"/>
<path fill-rule="evenodd" clip-rule="evenodd" d="M42.0692 23.7816L46.38 19.4428L50.6805 23.7816L46.38 28.1204L42.0692 23.7816ZM38.6946 23.8021L46.38 16.0659L54.0551 23.8021L46.38 31.5382L38.6946 23.8021Z" fill="#30519F"/>
<path d="M33.4475 27.2198L37.7378 31.5381L45.4232 23.8019L43.7359 22.1033L37.7378 28.151L35.1245 25.5211L33.4475 27.2198Z" fill="#7A9DB7"/>
<path d="M29.9081 39.0081C31.1735 39.0081 32.1921 38.0871 32.1921 36.5829C32.1921 34.9661 31.0501 34.1372 29.9081 34.1372C28.7558 34.1372 27.6138 34.9558 27.6138 36.5829C27.6241 38.0769 28.6426 39.0081 29.9081 39.0081ZM29.9081 38.7523C29.1262 38.7523 28.4163 38.1281 28.4163 36.5727C28.4163 34.9661 29.1879 34.393 29.9081 34.393C30.618 34.393 31.3999 34.9661 31.3999 36.5727C31.3999 38.1178 30.69 38.7523 29.9081 38.7523Z" fill="#1B181C"/>
<path d="M35.7932 37.2787V35.6414H35.6286C35.5566 36.1735 35.4331 36.3066 34.8569 36.3066H33.8487V34.7409C33.8487 34.526 33.9001 34.5056 34.075 34.5056H35.0216C35.8035 34.5056 35.9784 34.6181 36.0813 35.2423H36.2562L36.2356 34.2395H32.5215V34.3725C32.9639 34.4032 33.1285 34.4544 33.1285 35.007V38.0564C33.1285 38.6397 33.0462 38.742 32.5215 38.7727V38.9057H34.4763V38.7727C33.9824 38.7523 33.8384 38.6704 33.8384 38.1383V36.5931L34.8569 36.6033C35.3816 36.6136 35.5463 36.6852 35.6286 37.2685H35.7932V37.2787Z" fill="#1B181C"/>
<path d="M36.4412 34.3725C36.9453 34.4237 37.0276 34.5055 37.0276 35.007V38.0564C37.0276 38.568 37.0276 38.7215 36.4412 38.7727V38.9057H38.396V38.7727C37.861 38.7625 37.7375 38.6499 37.7375 38.1383V36.8489C37.9021 36.8591 38.0359 36.8694 38.2108 36.8694C38.9412 36.8694 39.3939 36.7466 39.6923 36.4498C39.8157 36.3372 40.1244 36.0507 40.1244 35.4981C40.1244 34.5976 39.2602 34.2292 38.2931 34.2292H36.4514V34.3725H36.4412ZM37.7478 34.7409C37.7478 34.5055 37.8198 34.5055 38.0359 34.5055C38.3445 34.5055 39.3631 34.5158 39.3631 35.5288C39.3631 36.6033 38.4268 36.6033 38.1696 36.6033C38.0256 36.6033 37.8815 36.5931 37.7478 36.5828V34.7409Z" fill="#1B181C"/>
<path d="M40.3406 34.3725C40.855 34.4237 40.927 34.5055 40.927 35.007V38.0564C40.927 38.568 40.927 38.7215 40.3406 38.7727V38.9057H42.2954V38.7727C41.7604 38.7625 41.6369 38.6499 41.6369 38.1383V36.8489C41.8015 36.8591 41.9353 36.8694 42.1102 36.8694C42.8406 36.8694 43.2933 36.7466 43.5917 36.4498C43.7152 36.3372 44.0238 36.0507 44.0238 35.4981C44.0238 34.5976 43.1596 34.2292 42.1925 34.2292H40.3406V34.3725ZM41.6369 34.7409C41.6369 34.5055 41.7089 34.5055 41.925 34.5055C42.2336 34.5055 43.2522 34.5158 43.2522 35.5288C43.2522 36.6033 42.3159 36.6033 42.0587 36.6033C41.9147 36.6033 41.7707 36.5931 41.6369 36.5828V34.7409Z" fill="#1B181C"/>
<path d="M47.2851 38.7727C46.6987 38.7523 46.6164 38.6192 46.6164 38.1383V34.5363H46.997C47.7687 34.5363 47.9641 34.6591 48.1082 35.4368H48.2728L48.2316 34.2395H44.2809L44.2397 35.4368H44.4044C44.5587 34.6693 44.7439 34.5363 45.5155 34.5363H45.8962V38.0666C45.8962 38.5885 45.8756 38.7523 45.2377 38.783V38.916H47.2851V38.7727Z" fill="#1B181C"/>
<path fill-rule="evenodd" clip-rule="evenodd" d="M17.6238 43.7461C17.7164 43.7359 17.7782 43.7256 17.809 43.6949C17.8605 43.654 17.9016 43.5824 17.9325 43.4596L18.3955 41.8018L18.4263 41.6586C18.4263 41.6381 18.4366 41.6279 18.4366 41.6176C18.4366 41.6074 18.4366 41.5869 18.4366 41.5767C18.4366 41.5153 18.4161 41.4744 18.3749 41.4539C18.3337 41.4334 18.2617 41.413 18.1691 41.413V41.3516H19.1054C19.3009 41.3516 19.4552 41.372 19.5683 41.4232C19.7947 41.5153 19.8976 41.679 19.8976 41.9246C19.8976 42.0781 19.8564 42.2111 19.7638 42.3237C19.5889 42.5488 19.2906 42.6614 18.8379 42.6614C18.7864 42.6614 18.735 42.6614 18.6733 42.6512C18.6218 42.6512 18.5704 42.6409 18.5189 42.6307L18.3235 43.3572C18.3132 43.3982 18.3029 43.4391 18.2926 43.4596C18.2823 43.5107 18.272 43.5517 18.272 43.5721C18.272 43.6335 18.2926 43.6745 18.3235 43.6949C18.3646 43.7154 18.4263 43.7358 18.5292 43.7358V43.7972H17.6033V43.7461H17.6238ZM18.663 42.5079C18.6938 42.5079 18.7453 42.5181 18.7967 42.5181C18.9819 42.5181 19.1259 42.4977 19.2391 42.4363C19.4346 42.3442 19.5375 42.16 19.5375 41.8939C19.5375 41.7404 19.4963 41.6279 19.4037 41.5562C19.3111 41.4948 19.198 41.4539 19.0539 41.4539C18.9922 41.4539 18.951 41.4641 18.9202 41.4744C18.8893 41.4846 18.8687 41.5153 18.8585 41.5562L18.591 42.4874C18.6012 42.5079 18.6218 42.5079 18.663 42.5079Z" fill="#334D9C"/>
<path fill-rule="evenodd" clip-rule="evenodd" d="M21.2452 42.2827C21.2041 42.2418 21.1526 42.2213 21.1012 42.2213C20.9057 42.2213 20.7205 42.3748 20.5456 42.6818C20.3913 42.9478 20.3193 43.1832 20.3193 43.3776C20.3193 43.4799 20.3399 43.5413 20.381 43.5925C20.4222 43.6334 20.4736 43.6539 20.5353 43.6539C20.7205 43.6539 20.8954 43.5106 21.0703 43.2037C21.2247 42.9376 21.307 42.692 21.307 42.4771C21.2967 42.3953 21.2761 42.3236 21.2452 42.2827ZM21.2967 42.2213C21.3275 42.252 21.3481 42.2827 21.3687 42.3236L21.379 42.3441L21.4201 42.2111C21.4201 42.1906 21.4304 42.1804 21.4304 42.1804C21.4304 42.1701 21.4407 42.1701 21.451 42.1701L21.6568 42.1497C21.6671 42.1497 21.6774 42.1497 21.6774 42.1599C21.6774 42.1599 21.6774 42.1701 21.6774 42.1804C21.6671 42.1906 21.6671 42.2111 21.6671 42.2213C21.6671 42.2315 21.6568 42.2418 21.6568 42.2622L21.4922 42.9171C21.451 43.0604 21.4201 43.1832 21.3996 43.2855C21.3584 43.4697 21.3275 43.5823 21.3275 43.613C21.3275 43.6334 21.3275 43.6437 21.3378 43.6539C21.3481 43.6641 21.3584 43.6641 21.3687 43.6641C21.379 43.6641 21.3893 43.6641 21.3996 43.6539C21.4099 43.6437 21.4304 43.6334 21.451 43.6232L21.4819 43.5925C21.4922 43.5823 21.5024 43.572 21.5127 43.5618C21.523 43.5516 21.5436 43.5311 21.5539 43.5209L21.6671 43.3981L21.7082 43.439C21.5848 43.6027 21.4819 43.7153 21.3996 43.7665C21.3275 43.8279 21.2452 43.8483 21.1835 43.8483C21.1424 43.8483 21.1012 43.8279 21.0806 43.7972C21.06 43.7665 21.0395 43.7255 21.0395 43.6744C21.0395 43.6334 21.0498 43.572 21.06 43.4902C21.0806 43.4083 21.0909 43.3367 21.1115 43.2855C21.0909 43.3265 21.0498 43.3776 20.9983 43.4493C20.9469 43.5209 20.8851 43.5823 20.8028 43.6539C20.7102 43.7358 20.6279 43.7869 20.5456 43.8279C20.4839 43.8483 20.4222 43.8586 20.3604 43.8586C20.2576 43.8586 20.1752 43.8176 20.0929 43.7358C20.0106 43.6539 19.9695 43.5413 19.9695 43.3879C19.9695 43.132 20.0827 42.866 20.3193 42.5897C20.5559 42.3032 20.8028 42.1599 21.06 42.1599C21.1732 42.1394 21.2452 42.1701 21.2967 42.2213Z" fill="#334D9C"/>
<path fill-rule="evenodd" clip-rule="evenodd" d="M22.6033 42.1496C22.6033 42.1598 22.6136 42.1598 22.6136 42.1701C22.6136 42.1803 22.6136 42.1905 22.6136 42.2008L22.4284 42.9069L22.4696 42.825C22.5622 42.651 22.6651 42.4975 22.7782 42.3543C22.9017 42.211 23.0046 42.1394 23.1178 42.1394C23.1795 42.1394 23.2206 42.1598 23.2515 42.2008C23.2824 42.2417 23.303 42.2826 23.303 42.3338C23.303 42.3952 23.2824 42.4361 23.2515 42.4668C23.2206 42.4975 23.1795 42.518 23.1178 42.518C23.0766 42.518 23.0457 42.5078 23.0355 42.4975C23.0149 42.4873 23.0046 42.4668 22.9943 42.4464L22.9737 42.4054C22.9737 42.3952 22.9634 42.3952 22.9532 42.385C22.9429 42.385 22.9429 42.3747 22.9326 42.3747C22.8811 42.3747 22.8194 42.4464 22.7268 42.5692C22.6342 42.7022 22.5622 42.8455 22.4902 42.999C22.449 43.0911 22.3976 43.2138 22.3461 43.3776C22.3153 43.4799 22.2741 43.6129 22.2124 43.7971H21.9243L22.233 42.692C22.2535 42.6306 22.2638 42.5692 22.2741 42.518C22.2844 42.4668 22.2947 42.4259 22.2947 42.3952C22.2947 42.3543 22.2844 42.3338 22.2638 42.3133C22.2433 42.2929 22.2124 42.2826 22.1712 42.2826C22.1609 42.2826 22.1404 42.2826 22.1198 42.2826C22.0992 42.2826 22.0684 42.2826 22.0375 42.2929V42.2315L22.1095 42.2212C22.2021 42.2008 22.3153 42.1803 22.4182 42.1598C22.5313 42.1394 22.5931 42.1292 22.6033 42.1292C22.5931 42.1292 22.5931 42.1394 22.6033 42.1496Z" fill="#334D9C"/>
<path fill-rule="evenodd" clip-rule="evenodd" d="M23.4265 43.6538C23.4265 43.6436 23.4265 43.6231 23.4368 43.6129L23.7866 42.3338H23.5088C23.5088 42.3031 23.5088 42.2826 23.5191 42.2724C23.5191 42.2622 23.5397 42.2519 23.5603 42.2519C23.6837 42.2008 23.7763 42.1496 23.8483 42.0984C23.9204 42.0473 24.013 41.9552 24.1261 41.8119L24.157 41.7812C24.157 41.771 24.1673 41.771 24.1673 41.771C24.1776 41.771 24.1776 41.7607 24.1879 41.7607C24.1981 41.7607 24.2084 41.771 24.2084 41.771C24.2084 41.7812 24.2187 41.7914 24.2187 41.7914C24.2187 41.8017 24.2187 41.8017 24.2187 41.8119L24.1158 42.211H24.4142L24.3936 42.3338H24.085L23.7557 43.572C23.7557 43.5924 23.7557 43.6129 23.766 43.6334C23.7763 43.6538 23.7969 43.6641 23.8175 43.6641C23.8483 43.6641 23.8895 43.6334 23.9512 43.572C23.9821 43.5413 24.0438 43.4697 24.1158 43.3673L24.1673 43.398L24.1467 43.439C24.0438 43.5924 23.9512 43.705 23.8689 43.7664C23.7866 43.8278 23.7146 43.8585 23.6426 43.8585C23.5808 43.8585 23.5294 43.838 23.5088 43.8073C23.478 43.7766 23.4677 43.7357 23.4677 43.6948C23.4162 43.6743 23.4162 43.6641 23.4265 43.6538Z" fill="#334D9C"/>
<path fill-rule="evenodd" clip-rule="evenodd" d="M24.8154 42.5283C25.0623 42.2725 25.3092 42.1497 25.5664 42.1497C25.659 42.1497 25.7413 42.1701 25.7928 42.2111C25.8442 42.252 25.8751 42.3236 25.8751 42.4055C25.8751 42.5794 25.7722 42.7329 25.5664 42.8557C25.3607 42.9785 25.1446 43.0604 24.9183 43.0809L24.8154 43.0911C24.7948 43.1423 24.7845 43.1832 24.7845 43.2139C24.7742 43.2446 24.7742 43.2753 24.7742 43.3265C24.7742 43.4288 24.8051 43.5209 24.8771 43.5823C24.9491 43.6437 25.0315 43.6744 25.1343 43.6744C25.2269 43.6744 25.3195 43.6437 25.4224 43.5823C25.4841 43.5413 25.5664 43.4799 25.6796 43.3879L25.7311 43.4288C25.6796 43.5004 25.5973 43.572 25.4944 43.6437C25.3092 43.7767 25.124 43.8381 24.9491 43.8381C24.8154 43.8381 24.7022 43.7972 24.6096 43.7051C24.5067 43.613 24.4656 43.4799 24.4656 43.3162C24.445 43.0502 24.5685 42.7841 24.8154 42.5283ZM25.4018 42.7739C25.5459 42.6408 25.6179 42.518 25.6179 42.385C25.6179 42.3441 25.6076 42.3032 25.587 42.2725C25.5664 42.2418 25.5356 42.2315 25.4944 42.2315C25.4121 42.2315 25.3401 42.2622 25.2578 42.3339C25.1858 42.4055 25.1138 42.4771 25.052 42.559C24.9903 42.6613 24.9389 42.7534 24.8977 42.8455C24.8771 42.8967 24.8565 42.9478 24.8257 43.0092C25.0726 42.9888 25.2578 42.9069 25.4018 42.7739Z" fill="#334D9C"/>
<path fill-rule="evenodd" clip-rule="evenodd" d="M26.0603 43.8074L26.3792 42.6715C26.4101 42.5794 26.4204 42.518 26.4204 42.4976C26.4204 42.4771 26.4307 42.4566 26.4307 42.4362C26.4307 42.3952 26.4204 42.3748 26.3998 42.3543C26.3792 42.3338 26.3381 42.3236 26.2866 42.3236C26.2661 42.3236 26.2558 42.3236 26.2455 42.3236C26.2352 42.3236 26.2146 42.3236 26.2043 42.3236V42.2622C26.2866 42.252 26.3381 42.2417 26.369 42.2315C26.3998 42.2213 26.441 42.2213 26.4821 42.211L26.8114 42.1394C26.8216 42.1394 26.8216 42.1496 26.8216 42.1599L26.5747 42.9478C26.729 42.7227 26.8525 42.5487 26.9451 42.4362C27.12 42.2417 27.2846 42.1394 27.4184 42.1394C27.4698 42.1394 27.5212 42.1496 27.5521 42.1701C27.6241 42.211 27.6653 42.2827 27.6653 42.385C27.6653 42.4157 27.6653 42.4464 27.655 42.4771C27.6447 42.5078 27.6447 42.5385 27.6344 42.5794L27.3978 43.4595C27.3978 43.4799 27.3875 43.5004 27.3772 43.5311C27.3669 43.5618 27.3669 43.572 27.3669 43.5823C27.3669 43.6027 27.3669 43.613 27.3772 43.6334C27.3875 43.6437 27.3978 43.6539 27.4184 43.6539C27.4492 43.6539 27.4904 43.6334 27.5315 43.6027C27.5727 43.5618 27.6447 43.4799 27.7373 43.3571L27.7887 43.4083C27.6859 43.5413 27.6036 43.6437 27.5521 43.6948C27.4492 43.7869 27.3566 43.8381 27.264 43.8381C27.2229 43.8381 27.1817 43.8279 27.1406 43.7972C27.0994 43.7665 27.0789 43.7153 27.0789 43.6437C27.0789 43.6232 27.0789 43.6027 27.0789 43.5823C27.0789 43.5618 27.0891 43.5413 27.0891 43.5209L27.3258 42.6306C27.3361 42.5794 27.3463 42.5385 27.3463 42.5078C27.3566 42.4771 27.3566 42.4566 27.3566 42.4362C27.3566 42.4055 27.3463 42.385 27.3361 42.3645C27.3258 42.3441 27.2949 42.3338 27.264 42.3338C27.1714 42.3338 27.0583 42.4157 26.9142 42.5794C26.8319 42.6818 26.7496 42.7943 26.6673 42.9376C26.6056 43.0399 26.5541 43.1525 26.513 43.2446C26.4718 43.3469 26.4204 43.5311 26.3381 43.7972H26.0603V43.8074Z" fill="#334D9C"/>
<path fill-rule="evenodd" clip-rule="evenodd" d="M29.1881 42.2827C29.1469 42.2418 29.0955 42.2213 29.044 42.2213C28.8486 42.2213 28.6531 42.3748 28.4885 42.6818C28.3341 42.9478 28.2621 43.1832 28.2621 43.3776C28.2621 43.4799 28.2827 43.5413 28.3239 43.5925C28.365 43.6334 28.4164 43.6539 28.4782 43.6539C28.6634 43.6539 28.8383 43.5106 29.0132 43.2037C29.1675 42.9376 29.2498 42.692 29.2498 42.4771C29.2498 42.3953 29.2292 42.3236 29.1881 42.2827ZM29.2498 42.2213C29.2807 42.252 29.3012 42.2827 29.3115 42.3236L29.3218 42.3441L29.363 42.2111C29.3733 42.1906 29.3733 42.1804 29.3733 42.1804C29.3733 42.1701 29.3836 42.1701 29.4041 42.1701L29.6099 42.1497C29.6202 42.1497 29.6305 42.1497 29.6305 42.1599C29.6305 42.1599 29.6305 42.1701 29.6305 42.1804C29.6202 42.1906 29.6202 42.2111 29.6202 42.2213C29.6202 42.2315 29.6099 42.2418 29.6099 42.2622L29.4453 42.9171C29.4041 43.0604 29.3733 43.1832 29.3527 43.2855C29.3115 43.4697 29.2807 43.5823 29.2807 43.613C29.2807 43.6334 29.2807 43.6437 29.291 43.6539C29.3013 43.6641 29.3115 43.6641 29.3218 43.6641C29.3321 43.6641 29.3424 43.6641 29.3527 43.6539C29.363 43.6437 29.3836 43.6334 29.4041 43.6232L29.435 43.5925C29.4453 43.5823 29.4556 43.572 29.4659 43.5618C29.4762 43.5516 29.4967 43.5311 29.507 43.5209L29.6202 43.3981L29.6613 43.439C29.5379 43.6027 29.435 43.7153 29.3527 43.7665C29.2807 43.8279 29.1984 43.8483 29.1366 43.8483C29.0955 43.8483 29.0543 43.8279 29.0338 43.7972C29.0132 43.7665 28.9926 43.7255 28.9926 43.6744C28.9926 43.6334 29.0029 43.572 29.0132 43.4902C29.0338 43.4083 29.044 43.3367 29.0646 43.2855C29.044 43.3265 29.0029 43.3776 28.9514 43.4493C28.9 43.5209 28.8383 43.5823 28.756 43.6539C28.6634 43.7358 28.5811 43.7869 28.4988 43.8279C28.437 43.8483 28.3753 43.8586 28.3136 43.8586C28.2107 43.8586 28.1284 43.8176 28.0461 43.7358C27.9638 43.6539 27.9226 43.5413 27.9226 43.3879C27.9226 43.132 28.0358 42.866 28.2724 42.5897C28.509 42.3032 28.756 42.1599 29.0132 42.1599C29.1161 42.1394 29.1984 42.1701 29.2498 42.2213Z" fill="#334D9C"/>
<path fill-rule="evenodd" clip-rule="evenodd" d="M30.4431 41.679C30.4123 41.638 30.3917 41.5869 30.3917 41.5357C30.3917 41.4743 30.4123 41.4334 30.4431 41.3925C30.474 41.3515 30.5254 41.3311 30.5666 41.3311C30.618 41.3311 30.6592 41.3515 30.7003 41.3925C30.7415 41.4334 30.7518 41.4743 30.7518 41.5357C30.7518 41.5869 30.7312 41.638 30.7003 41.679C30.6592 41.7199 30.618 41.7404 30.5666 41.7404C30.5254 41.7404 30.4843 41.7199 30.4431 41.679ZM30.618 42.1395C30.6283 42.1395 30.6283 42.1497 30.6283 42.1497L30.2579 43.4595C30.2374 43.5312 30.2271 43.5721 30.2271 43.5823C30.2271 43.6028 30.2271 43.613 30.2374 43.6335C30.2477 43.6437 30.2579 43.6539 30.2785 43.6539C30.3197 43.6539 30.3711 43.6232 30.4431 43.5414C30.4843 43.5005 30.5357 43.4391 30.5872 43.3572L30.6386 43.3981L30.618 43.4186C30.5254 43.5516 30.4534 43.6437 30.3917 43.6949C30.2991 43.787 30.2065 43.8279 30.1139 43.8279C30.0625 43.8279 30.0213 43.8074 29.9802 43.7665C29.9493 43.7256 29.9287 43.6744 29.9287 43.613C29.9287 43.5823 29.9287 43.5516 29.939 43.5209C29.939 43.4902 29.9493 43.4595 29.9699 43.4084L30.2271 42.4669C30.2271 42.4567 30.2374 42.4362 30.2374 42.426C30.2374 42.4158 30.2374 42.4055 30.2374 42.3851C30.2374 42.3441 30.2168 42.3134 30.1859 42.3032C30.1551 42.293 30.0933 42.2827 29.9904 42.2827V42.2213C30.0933 42.2111 30.1653 42.2009 30.2065 42.1906C30.2477 42.1804 30.2991 42.1804 30.3402 42.1702C30.402 42.1599 30.4534 42.1497 30.5049 42.1395C30.5769 42.1395 30.6077 42.1395 30.618 42.1395Z" fill="#334D9C"/>
<path fill-rule="evenodd" clip-rule="evenodd" d="M31.5955 42.1496C31.5955 42.1598 31.6058 42.1598 31.6058 42.1701C31.6058 42.1803 31.6058 42.1905 31.6058 42.2008L31.4206 42.9069L31.4618 42.825C31.5544 42.651 31.6573 42.4975 31.7704 42.3543C31.8939 42.211 31.9968 42.1394 32.11 42.1394C32.1717 42.1394 32.2128 42.1598 32.2437 42.2008C32.2746 42.2417 32.2951 42.2826 32.2951 42.3338C32.2951 42.3952 32.2849 42.4361 32.2437 42.4668C32.2128 42.4975 32.1717 42.518 32.1202 42.518C32.0791 42.518 32.0482 42.5078 32.0379 42.4975C32.0174 42.4873 32.0071 42.4668 31.9865 42.4464L31.9659 42.4054C31.9659 42.3952 31.9556 42.3952 31.9453 42.385C31.9351 42.385 31.9351 42.3747 31.9248 42.3747C31.8733 42.3747 31.8116 42.4464 31.719 42.5692C31.6264 42.7022 31.5441 42.8455 31.4824 42.999C31.4412 43.0911 31.3898 43.2138 31.3383 43.3776C31.3075 43.4799 31.2663 43.6129 31.2046 43.7971H30.9165L31.2252 42.692C31.2457 42.6306 31.256 42.5692 31.2663 42.518C31.2766 42.4668 31.2869 42.4259 31.2869 42.3952C31.2869 42.3543 31.2766 42.3338 31.256 42.3133C31.2354 42.2929 31.2046 42.2826 31.1634 42.2826C31.1531 42.2826 31.1326 42.2826 31.112 42.2826C31.0914 42.2826 31.0605 42.2826 31.0297 42.2929V42.2315L31.1017 42.2212C31.1943 42.2008 31.2972 42.1803 31.4103 42.1598C31.5235 42.1394 31.5852 42.1292 31.5852 42.1292C31.5852 42.1292 31.5955 42.1394 31.5955 42.1496Z" fill="#334D9C"/>
<path fill-rule="evenodd" clip-rule="evenodd" d="M32.6244 42.5283C32.8713 42.2725 33.1182 42.1497 33.3754 42.1497C33.468 42.1497 33.5503 42.1701 33.6018 42.2111C33.6532 42.252 33.6841 42.3236 33.6841 42.4055C33.6841 42.5794 33.5812 42.7329 33.3754 42.8557C33.1696 42.9785 32.9536 43.0604 32.7272 43.0809L32.6244 43.0911C32.6038 43.1423 32.5935 43.1832 32.5935 43.2139C32.5832 43.2446 32.5832 43.2753 32.5832 43.3265C32.5832 43.4288 32.6141 43.5209 32.6861 43.5823C32.7581 43.6437 32.8404 43.6744 32.9433 43.6744C33.0359 43.6744 33.1285 43.6437 33.2314 43.5823C33.2931 43.5413 33.3754 43.4799 33.4886 43.3879L33.54 43.4288C33.4886 43.5004 33.4063 43.572 33.3034 43.6437C33.1182 43.7767 32.933 43.8381 32.7478 43.8381C32.6141 43.8381 32.5009 43.7972 32.4083 43.7051C32.3054 43.613 32.2643 43.4799 32.2643 43.3162C32.254 43.0502 32.3774 42.7841 32.6244 42.5283ZM33.2211 42.7739C33.3651 42.6408 33.4371 42.518 33.4371 42.385C33.4371 42.3441 33.4269 42.3032 33.4063 42.2725C33.3857 42.2418 33.3548 42.2315 33.3137 42.2315C33.2314 42.2315 33.1594 42.2622 33.077 42.3339C33.005 42.4055 32.933 42.4771 32.8713 42.559C32.8095 42.6613 32.7581 42.7534 32.717 42.8455C32.6964 42.8967 32.6758 42.9478 32.6552 43.0092C32.8816 42.9888 33.0668 42.9069 33.2211 42.7739Z" fill="#334D9C"/>
<path fill-rule="evenodd" clip-rule="evenodd" d="M35.2376 42.5283C35.4846 42.2725 35.7315 42.1497 35.9887 42.1497C36.0813 42.1497 36.1636 42.1701 36.215 42.2111C36.2665 42.252 36.2973 42.3236 36.2973 42.4055C36.2973 42.5794 36.1945 42.7329 35.9887 42.8557C35.7829 42.9785 35.5669 43.0604 35.3405 43.0809L35.2376 43.0911C35.2171 43.1423 35.2068 43.1832 35.2068 43.2139C35.1965 43.2446 35.1965 43.2753 35.1965 43.3265C35.1965 43.4288 35.2274 43.5209 35.2994 43.5823C35.3714 43.6437 35.4537 43.6744 35.5463 43.6744C35.6389 43.6744 35.7315 43.6437 35.8344 43.5823C35.8961 43.5413 35.9784 43.4799 36.0916 43.3879L36.143 43.4288C36.0916 43.5004 36.0093 43.572 35.9064 43.6437C35.7212 43.7767 35.536 43.8381 35.3611 43.8381C35.2274 43.8381 35.1142 43.7972 35.0216 43.7051C34.9187 43.613 34.8775 43.4799 34.8775 43.3162C34.8673 43.0502 34.9907 42.7841 35.2376 42.5283ZM35.8344 42.7739C35.9784 42.6408 36.0607 42.518 36.0607 42.385C36.0607 42.3441 36.0504 42.3032 36.0298 42.2725C36.0093 42.2418 35.9784 42.2315 35.9372 42.2315C35.8549 42.2315 35.7829 42.2622 35.7006 42.3339C35.6286 42.4055 35.5566 42.4771 35.4948 42.559C35.4331 42.6613 35.3817 42.7534 35.3405 42.8455C35.3199 42.8967 35.2994 42.9478 35.2788 43.0092C35.4948 42.9888 35.68 42.9069 35.8344 42.7739Z" fill="#334D9C"/>
<path fill-rule="evenodd" clip-rule="evenodd" d="M36.4927 43.8074L36.8116 42.6715C36.8425 42.5794 36.8528 42.518 36.8528 42.4976C36.8528 42.4771 36.8631 42.4566 36.8631 42.4362C36.8631 42.3952 36.8528 42.3748 36.8322 42.3543C36.8116 42.3338 36.7705 42.3236 36.719 42.3236C36.7087 42.3236 36.6882 42.3236 36.6779 42.3236C36.6676 42.3236 36.647 42.3236 36.6367 42.3236V42.2622C36.719 42.252 36.7705 42.2417 36.8116 42.2315C36.8425 42.2213 36.8836 42.2213 36.9248 42.211L37.254 42.1394C37.2643 42.1394 37.2643 42.1496 37.2643 42.1599L37.0174 42.9478C37.1614 42.7227 37.2952 42.5487 37.3878 42.4362C37.5627 42.2417 37.7273 42.1394 37.861 42.1394C37.9125 42.1394 37.9639 42.1496 38.0051 42.1701C38.0771 42.211 38.1182 42.2827 38.1182 42.385C38.1182 42.4157 38.1182 42.4464 38.1079 42.4771C38.0977 42.5078 38.0977 42.5385 38.0874 42.5794L37.8507 43.4595C37.8507 43.4799 37.8405 43.5004 37.8302 43.5311C37.8199 43.5618 37.8199 43.572 37.8199 43.5823C37.8199 43.6027 37.8302 43.613 37.8302 43.6334C37.8405 43.6437 37.8507 43.6539 37.8713 43.6539C37.9022 43.6539 37.9433 43.6334 37.9845 43.6027C38.0256 43.5618 38.0977 43.4799 38.1903 43.3571L38.2417 43.4083C38.1388 43.5413 38.0565 43.6437 38.0051 43.6948C37.9022 43.7869 37.8096 43.8381 37.717 43.8381C37.6758 43.8381 37.6347 43.8279 37.5935 43.7972C37.5524 43.7665 37.5318 43.7153 37.5318 43.6437C37.5318 43.6232 37.5318 43.6027 37.5318 43.5823C37.5318 43.5618 37.5421 43.5413 37.5421 43.5209L37.7787 42.6306C37.789 42.5794 37.7993 42.5385 37.7993 42.5078C37.7993 42.4771 37.8096 42.4566 37.8096 42.4362C37.8096 42.4055 37.7993 42.385 37.789 42.3645C37.7787 42.3441 37.7479 42.3338 37.717 42.3338C37.6244 42.3338 37.5112 42.4157 37.3672 42.5794C37.2849 42.6818 37.2026 42.7943 37.1203 42.9376C37.0585 43.0399 37.0071 43.1525 36.9659 43.2446C36.9248 43.3469 36.8733 43.5311 36.791 43.7972H36.4927V43.8074Z" fill="#334D9C"/>
<path fill-rule="evenodd" clip-rule="evenodd" d="M40.7417 42.2519C40.8138 42.3236 40.8446 42.385 40.8446 42.4464C40.8446 42.5078 40.8241 42.5487 40.7932 42.5794C40.7623 42.6101 40.7212 42.6306 40.6697 42.6306C40.6286 42.6306 40.5874 42.6203 40.5566 42.5896C40.5257 42.5589 40.5051 42.5282 40.5051 42.4873C40.5051 42.4566 40.5154 42.4157 40.536 42.385C40.5566 42.344 40.5668 42.3236 40.5668 42.3133C40.5668 42.2929 40.5566 42.2724 40.5257 42.2622C40.5051 42.2417 40.464 42.2417 40.4022 42.2417C40.2068 42.2417 40.0319 42.3543 39.8878 42.5794C39.7438 42.8045 39.6718 43.0399 39.6718 43.2855C39.6718 43.4185 39.7026 43.5311 39.7644 43.6129C39.8261 43.6948 39.9084 43.7255 40.0319 43.7255C40.1244 43.7255 40.217 43.6948 40.3096 43.6436C40.4022 43.5925 40.4845 43.5208 40.5566 43.439L40.5668 43.4287L40.6183 43.4697C40.536 43.5822 40.4537 43.6641 40.3714 43.7255C40.2273 43.8278 40.073 43.879 39.8981 43.879C39.7335 43.879 39.5997 43.8278 39.4969 43.7255C39.394 43.6232 39.3425 43.4799 39.3425 43.2957C39.3425 43.0194 39.4557 42.7636 39.682 42.5282C39.9084 42.2929 40.145 42.1803 40.4125 42.1803C40.5771 42.1496 40.68 42.1803 40.7417 42.2519Z" fill="#334D9C"/>
<path fill-rule="evenodd" clip-rule="evenodd" d="M41.4105 43.6641C41.4619 43.7255 41.5339 43.7665 41.6368 43.7665C41.8323 43.7665 42.0175 43.613 42.1718 43.3162C42.3056 43.0604 42.3673 42.825 42.3673 42.5999C42.3673 42.5078 42.357 42.4362 42.3364 42.3748C42.2953 42.2724 42.213 42.211 42.0998 42.211C41.9146 42.211 41.7397 42.3543 41.5751 42.6306C41.4208 42.8966 41.3488 43.1525 41.3488 43.3981C41.3385 43.5106 41.359 43.5925 41.4105 43.6641ZM42.5525 42.3031C42.6348 42.4157 42.676 42.5385 42.676 42.692C42.676 42.9478 42.5628 43.2036 42.3364 43.4492C42.0998 43.7051 41.8426 43.8381 41.5751 43.8381C41.4105 43.8381 41.2665 43.7869 41.1739 43.6948C41.071 43.6027 41.0195 43.4595 41.0195 43.2855C41.0195 43.0194 41.1327 42.7636 41.359 42.518C41.5957 42.2724 41.8426 42.1394 42.1101 42.1394C42.3262 42.1394 42.4702 42.1906 42.5525 42.3031Z" fill="#334D9C"/>
<path fill-rule="evenodd" clip-rule="evenodd" d="M44.3324 42.1803C44.3942 42.2213 44.425 42.2827 44.425 42.385C44.425 42.4259 44.4147 42.4873 44.3942 42.559C44.3736 42.6306 44.3427 42.7534 44.2913 42.9171C44.425 42.7125 44.5485 42.5487 44.6411 42.4464C44.816 42.252 44.9806 42.1496 45.1143 42.1496C45.1761 42.1496 45.2275 42.1701 45.2687 42.211C45.3201 42.252 45.3407 42.3134 45.3407 42.3952C45.3407 42.4259 45.3304 42.4873 45.3098 42.5897L45.0423 43.5925C45.032 43.6027 45.0423 43.6232 45.0526 43.6437C45.0629 43.6641 45.0732 43.6641 45.1041 43.6641C45.1246 43.6641 45.1452 43.6539 45.1658 43.6437C45.1864 43.6334 45.2069 43.613 45.2275 43.5925C45.2481 43.572 45.2687 43.5516 45.2892 43.5311C45.3098 43.5106 45.351 43.4595 45.423 43.3674L45.4744 43.4083L45.4539 43.4288C45.3613 43.5516 45.279 43.6539 45.1864 43.7255C45.0938 43.7971 45.0115 43.8381 44.9189 43.8381C44.8777 43.8381 44.8468 43.8279 44.816 43.8074C44.7748 43.7767 44.7542 43.7255 44.7542 43.6437C44.7542 43.6232 44.7542 43.6027 44.7542 43.5823C44.7542 43.5618 44.7645 43.5413 44.7645 43.5106L45.032 42.4873C45.032 42.4771 45.0423 42.4566 45.0423 42.4464C45.0423 42.4362 45.0423 42.4259 45.0423 42.4157C45.0423 42.385 45.032 42.3645 45.0217 42.3441C45.0115 42.3338 44.9909 42.3236 44.96 42.3236C44.8777 42.3236 44.7851 42.385 44.6719 42.5078C44.5588 42.6306 44.4662 42.7534 44.3839 42.8864C44.3118 43.0194 44.2604 43.1218 44.2295 43.2139C44.1987 43.306 44.1472 43.4902 44.0649 43.7869H43.7769L44.1267 42.4873C44.1267 42.4771 44.1267 42.4669 44.1267 42.4566C44.1267 42.4464 44.1267 42.4362 44.1267 42.4259C44.1267 42.3952 44.1164 42.3748 44.1061 42.3543C44.0958 42.3338 44.0752 42.3236 44.0444 42.3236C43.9723 42.3236 43.8694 42.385 43.7563 42.518C43.6431 42.6408 43.5505 42.7636 43.4785 42.8762C43.4065 42.9887 43.3447 43.132 43.2727 43.306C43.2316 43.4185 43.1801 43.572 43.1184 43.7767H42.8303L43.1904 42.4771C43.1904 42.4669 43.2007 42.4464 43.2007 42.4362C43.2007 42.4259 43.2007 42.4055 43.2007 42.3952C43.2007 42.3441 43.1801 42.3236 43.1493 42.3134C43.1184 42.3031 43.0567 42.3031 42.9538 42.3031V42.2622C43.0772 42.2417 43.283 42.2008 43.5608 42.1394L43.5711 42.1496L43.355 42.9069C43.4888 42.7022 43.6225 42.5385 43.746 42.4055C43.9106 42.2315 44.0546 42.1394 44.1884 42.1394C44.2501 42.1496 44.2913 42.1599 44.3324 42.1803Z" fill="#334D9C"/>
<path fill-rule="evenodd" clip-rule="evenodd" d="M45.2378 44.5135C45.3098 44.5135 45.3715 44.5032 45.4024 44.4725C45.4436 44.4418 45.4641 44.4009 45.4847 44.3293L45.9477 42.5385C45.958 42.4976 45.9683 42.4669 45.9683 42.4464C45.9683 42.4259 45.9786 42.4157 45.9786 42.4055C45.9786 42.3645 45.958 42.3338 45.9374 42.3134C45.9065 42.2929 45.8654 42.2827 45.8037 42.2827C45.7934 42.2827 45.7831 42.2827 45.7728 42.2827C45.7625 42.2827 45.7522 42.2827 45.7419 42.2827V42.2213L46.3284 42.1394C46.3386 42.1394 46.3386 42.1394 46.3489 42.1496C46.3489 42.1701 46.3386 42.1803 46.3386 42.1906L46.2358 42.5487C46.3181 42.4362 46.4004 42.3543 46.4621 42.2929C46.5856 42.1906 46.7193 42.1394 46.8531 42.1394C46.9868 42.1394 47.1 42.1803 47.1823 42.2622C47.2646 42.3441 47.3058 42.4669 47.3058 42.6306C47.3058 42.9171 47.1823 43.1934 46.9457 43.4492C46.6987 43.7051 46.4518 43.8381 46.1946 43.8381C46.1432 43.8381 46.102 43.8278 46.0609 43.8278C46.03 43.8176 45.9786 43.7971 45.9271 43.7767L45.9065 43.8892C45.8757 44.012 45.8551 44.1041 45.8448 44.1553C45.8139 44.2986 45.7934 44.3702 45.7934 44.3907C45.7934 44.4418 45.8139 44.4725 45.8448 44.4828C45.8757 44.493 45.9374 44.5032 46.03 44.5135V44.5646H45.2481V44.5135H45.2378ZM46.9148 42.4464C46.8736 42.3543 46.8016 42.3134 46.6987 42.3134C46.6061 42.3134 46.5135 42.3543 46.4004 42.4362C46.2975 42.518 46.2152 42.6613 46.1535 42.8455C46.102 42.999 46.0609 43.1627 46.0197 43.3264C45.9786 43.4902 45.958 43.5925 45.958 43.6232C45.958 43.6744 45.9786 43.7051 46.0197 43.7255C46.0609 43.746 46.102 43.7562 46.1535 43.7562C46.3695 43.7562 46.565 43.6232 46.7193 43.3469C46.8634 43.1013 46.9354 42.8659 46.9354 42.6204C46.9457 42.5487 46.9354 42.4873 46.9148 42.4464Z" fill="#334D9C"/>
<path fill-rule="evenodd" clip-rule="evenodd" d="M47.8922 42.5283C48.1391 42.2724 48.386 42.1497 48.6432 42.1497C48.7358 42.1497 48.8181 42.1701 48.8696 42.211C48.921 42.252 48.9519 42.3236 48.9519 42.4055C48.9519 42.5794 48.849 42.7329 48.6432 42.8557C48.4375 42.9785 48.2214 43.0604 47.9951 43.0809L47.8922 43.0911C47.8716 43.1423 47.8613 43.1832 47.8613 43.2139C47.851 43.2446 47.851 43.2753 47.851 43.3264C47.851 43.4288 47.8819 43.5209 47.9539 43.5823C48.0259 43.6437 48.1082 43.6744 48.2008 43.6744C48.2934 43.6744 48.386 43.6437 48.4992 43.5823C48.5609 43.5413 48.6432 43.4799 48.7564 43.3878L48.8078 43.4288C48.7564 43.5004 48.6741 43.572 48.5712 43.6437C48.386 43.7767 48.2008 43.8381 48.0156 43.8381C47.8819 43.8381 47.7687 43.7972 47.6761 43.7051C47.5732 43.613 47.5321 43.4799 47.5321 43.3162C47.5218 43.0502 47.6453 42.7841 47.8922 42.5283ZM48.4889 42.7739C48.6329 42.6408 48.705 42.518 48.705 42.385C48.705 42.3441 48.6947 42.3031 48.6741 42.2724C48.6535 42.2417 48.6227 42.2315 48.5815 42.2315C48.4992 42.2315 48.4272 42.2622 48.3449 42.3338C48.2728 42.4055 48.2008 42.4771 48.1391 42.559C48.0774 42.6613 48.0259 42.7534 47.9848 42.8455C47.9642 42.8967 47.9436 42.9478 47.923 43.0092C48.1494 42.9888 48.3346 42.9069 48.4889 42.7739ZM49.2914 41.5152C49.2811 41.5254 49.2605 41.5459 49.2502 41.5561L48.6124 41.9552H48.4786L49.0856 41.3515C49.0959 41.3412 49.1062 41.331 49.1268 41.3208C49.1474 41.3105 49.1679 41.3105 49.1782 41.3105C49.2091 41.3105 49.24 41.3208 49.2708 41.3515C49.3017 41.3719 49.312 41.4026 49.312 41.4436C49.312 41.4845 49.3017 41.505 49.2914 41.5152Z" fill="#334D9C"/>
<path fill-rule="evenodd" clip-rule="evenodd" d="M49.2195 43.6538C49.2195 43.6436 49.2195 43.6231 49.2298 43.6129L49.5796 42.3338H49.3018C49.3018 42.3031 49.3018 42.2826 49.3121 42.2724C49.3121 42.2622 49.3327 42.2519 49.3532 42.2519C49.4767 42.2008 49.5693 42.1496 49.6413 42.0984C49.7133 42.0473 49.8059 41.9552 49.9191 41.8119L49.95 41.7812C49.95 41.771 49.9602 41.771 49.9602 41.771C49.9705 41.771 49.9705 41.7607 49.9808 41.7607C49.9911 41.7607 50.0014 41.771 50.0014 41.771C50.0014 41.7812 50.0117 41.7914 50.0117 41.7914C50.0117 41.8017 50.0117 41.8017 50.0117 41.8119L49.9088 42.211H50.2072L50.1866 42.3338H49.8779L49.5487 43.572C49.5384 43.5924 49.5487 43.6129 49.5487 43.6334C49.559 43.6538 49.5796 43.6641 49.6002 43.6641C49.631 43.6641 49.6722 43.6334 49.7339 43.572C49.7648 43.5413 49.8265 43.4697 49.8985 43.3673L49.95 43.398L49.9191 43.439C49.8162 43.5924 49.7236 43.705 49.6413 43.7664C49.559 43.8278 49.487 43.8585 49.415 43.8585C49.3532 43.8585 49.3018 43.838 49.2812 43.8073C49.2503 43.7766 49.2401 43.7357 49.2401 43.6948C49.2195 43.6743 49.2195 43.6641 49.2195 43.6538Z" fill="#334D9C"/>
<path fill-rule="evenodd" clip-rule="evenodd" d="M50.6082 42.5283C50.8552 42.2725 51.1021 42.1497 51.3593 42.1497C51.4519 42.1497 51.5342 42.1701 51.5856 42.2111C51.6474 42.252 51.6679 42.3236 51.6679 42.4055C51.6679 42.5794 51.5651 42.7329 51.3593 42.8557C51.1535 42.9785 50.9375 43.0604 50.7111 43.0809L50.6082 43.0911C50.598 43.1423 50.5774 43.1832 50.5774 43.2139C50.5671 43.2446 50.5671 43.2753 50.5671 43.3265C50.5671 43.4288 50.598 43.5209 50.67 43.5823C50.742 43.6437 50.8243 43.6744 50.9272 43.6744C51.0198 43.6744 51.1124 43.6437 51.2153 43.5823C51.277 43.5413 51.3593 43.4799 51.4725 43.3879L51.5239 43.4288C51.4725 43.5004 51.3902 43.572 51.2873 43.6437C51.1021 43.7767 50.9169 43.8381 50.7317 43.8381C50.598 43.8381 50.4848 43.7972 50.3922 43.7051C50.2996 43.613 50.2482 43.4799 50.2482 43.3162C50.2379 43.0502 50.3613 42.7841 50.6082 42.5283ZM51.205 42.7739C51.349 42.6408 51.421 42.518 51.421 42.385C51.421 42.3441 51.4107 42.3032 51.3902 42.2725C51.3696 42.2418 51.3387 42.2315 51.2873 42.2315C51.205 42.2315 51.133 42.2622 51.0506 42.3339C50.9786 42.4055 50.9066 42.4771 50.8449 42.559C50.7831 42.6613 50.7317 42.7534 50.6906 42.8455C50.67 42.8967 50.6494 42.9478 50.6288 43.0092C50.8655 42.9888 51.0609 42.9069 51.205 42.7739Z" fill="#334D9C"/>
<path fill-rule="evenodd" clip-rule="evenodd" d="M51.8635 43.8074L52.1825 42.6715C52.2133 42.5794 52.2236 42.518 52.2339 42.4976C52.2442 42.4771 52.2442 42.4566 52.2442 42.4362C52.2442 42.3952 52.2339 42.3748 52.2133 42.3543C52.1928 42.3338 52.1516 42.3236 52.1002 42.3236C52.0899 42.3236 52.0693 42.3236 52.059 42.3236C52.0487 42.3236 52.0281 42.3236 52.0179 42.3236V42.2622C52.1002 42.252 52.1516 42.2417 52.1825 42.2315C52.2133 42.2213 52.2545 42.2213 52.2956 42.211L52.6249 42.1394C52.6352 42.1394 52.6352 42.1496 52.6352 42.1599L52.3882 42.9478C52.5323 42.7227 52.666 42.5487 52.7586 42.4362C52.9335 42.2417 53.0878 42.1394 53.2319 42.1394C53.2833 42.1394 53.3348 42.1496 53.3759 42.1701C53.4479 42.211 53.4891 42.2827 53.4891 42.385C53.4891 42.4157 53.4891 42.4464 53.4788 42.4771C53.4685 42.5078 53.4685 42.5385 53.4582 42.5794L53.2216 43.4595C53.2216 43.4799 53.2113 43.5004 53.201 43.5311C53.1907 43.5618 53.1907 43.572 53.1907 43.5823C53.1907 43.6027 53.1907 43.613 53.201 43.6334C53.2113 43.6437 53.2216 43.6539 53.2422 43.6539C53.273 43.6539 53.3142 43.6334 53.3553 43.6027C53.3965 43.5618 53.4685 43.4799 53.5611 43.3571L53.6125 43.4083C53.5097 43.5413 53.4376 43.6437 53.3759 43.6948C53.273 43.7869 53.1804 43.8381 53.0878 43.8381C53.0467 43.8381 53.0055 43.8279 52.9644 43.7972C52.9232 43.7665 52.9129 43.7153 52.9129 43.6437C52.9129 43.6232 52.9129 43.6027 52.9129 43.5823C52.9129 43.5618 52.9232 43.5413 52.9232 43.5209L53.1599 42.6306C53.1701 42.5794 53.1804 42.5385 53.1804 42.5078C53.1804 42.4771 53.1907 42.4566 53.1907 42.4362C53.1907 42.4055 53.1804 42.385 53.1701 42.3645C53.1599 42.3441 53.129 42.3338 53.0981 42.3338C53.0055 42.3338 52.8924 42.4157 52.7483 42.5794C52.666 42.6818 52.5837 42.7943 52.5014 42.9376C52.4397 43.0399 52.3882 43.1525 52.3471 43.2446C52.3059 43.3469 52.2545 43.5311 52.1722 43.7972H51.8635V43.8074Z" fill="#334D9C"/>
<path fill-rule="evenodd" clip-rule="evenodd" d="M55.1763 42.2519C55.238 42.3236 55.2792 42.385 55.2792 42.4464C55.2792 42.5078 55.2586 42.5487 55.2278 42.5794C55.1969 42.6101 55.1557 42.6306 55.1043 42.6306C55.0631 42.6306 55.022 42.6203 54.9911 42.5896C54.9603 42.5589 54.95 42.5282 54.95 42.4873C54.95 42.4566 54.9603 42.4157 54.9808 42.385C55.0014 42.344 55.0117 42.3236 55.0117 42.3133C55.0117 42.2929 55.0014 42.2724 54.9705 42.2622C54.95 42.2417 54.9088 42.2417 54.8471 42.2417C54.6516 42.2417 54.4767 42.3543 54.3327 42.5794C54.1886 42.8045 54.1166 43.0399 54.1166 43.2855C54.1166 43.4185 54.1475 43.5311 54.2092 43.6129C54.2709 43.6948 54.3532 43.7255 54.4767 43.7255C54.5693 43.7255 54.6619 43.6948 54.7442 43.6436C54.8368 43.5925 54.9191 43.5208 54.9911 43.439L55.0014 43.4287L55.0529 43.4697C54.9705 43.5822 54.8882 43.6641 54.8059 43.7255C54.6619 43.8278 54.5076 43.879 54.3327 43.879C54.1681 43.879 54.0343 43.8278 53.9314 43.7255C53.8285 43.6232 53.7771 43.4799 53.7771 43.2957C53.7771 43.0194 53.8903 42.7636 54.1166 42.5282C54.343 42.2929 54.5796 42.1803 54.8471 42.1803C55.0014 42.1496 55.1146 42.1803 55.1763 42.2519Z" fill="#334D9C"/>
<path fill-rule="evenodd" clip-rule="evenodd" d="M55.8349 42.5283C56.0818 42.2725 56.3288 42.1497 56.586 42.1497C56.6786 42.1497 56.7609 42.1701 56.8123 42.2111C56.8638 42.252 56.8946 42.3236 56.8946 42.4055C56.8946 42.5794 56.7917 42.7329 56.586 42.8557C56.3802 42.9785 56.1642 43.0604 55.9378 43.0809L55.8349 43.0911C55.8144 43.1423 55.8041 43.1832 55.8041 43.2139C55.7938 43.2446 55.7938 43.2753 55.7938 43.3265C55.7938 43.4288 55.8246 43.5209 55.8967 43.5823C55.9687 43.6437 56.051 43.6744 56.1539 43.6744C56.2465 43.6744 56.3391 43.6437 56.4419 43.5823C56.5037 43.5413 56.586 43.4799 56.6991 43.3879L56.7506 43.4288C56.6991 43.5004 56.6168 43.572 56.514 43.6437C56.3288 43.7767 56.1539 43.8381 55.9687 43.8381C55.8349 43.8381 55.7218 43.7972 55.6292 43.7051C55.5263 43.613 55.4851 43.4799 55.4851 43.3162C55.4645 43.0502 55.588 42.7841 55.8349 42.5283ZM56.4317 42.7739C56.5757 42.6408 56.6477 42.518 56.6477 42.385C56.6477 42.3441 56.6374 42.3032 56.6168 42.2725C56.5963 42.2418 56.5654 42.2315 56.5243 42.2315C56.4419 42.2315 56.3699 42.2622 56.2876 42.3339C56.2156 42.4055 56.1436 42.4771 56.0818 42.559C56.0201 42.6613 55.9687 42.7534 55.9275 42.8455C55.9069 42.8967 55.8864 42.9478 55.8658 43.0092C56.0921 42.9888 56.2876 42.9069 56.4317 42.7739Z" fill="#334D9C"/>
<path fill-rule="evenodd" clip-rule="evenodd" d="M57.1621 43.2548H57.2238C57.2547 43.3981 57.2855 43.5106 57.3164 43.5823C57.3884 43.7051 57.481 43.7665 57.6148 43.7665C57.6868 43.7665 57.7485 43.746 57.7999 43.6846C57.8514 43.6334 57.8823 43.5618 57.8823 43.4799C57.8823 43.4288 57.872 43.3776 57.8617 43.3469C57.8514 43.3162 57.8308 43.2855 57.8102 43.2548L57.6559 43.0297C57.5633 42.8966 57.5016 42.8045 57.481 42.7534C57.4501 42.6818 57.4296 42.6101 57.4296 42.5487C57.4296 42.4464 57.4707 42.3441 57.5427 42.2724C57.625 42.1906 57.7279 42.1496 57.872 42.1496C57.9337 42.1496 58.0057 42.1599 58.0777 42.1803C58.16 42.2008 58.2115 42.211 58.2321 42.211C58.2629 42.211 58.2835 42.2008 58.3041 42.1906C58.3144 42.1803 58.3349 42.1599 58.3452 42.1394H58.3967L58.3247 42.6613H58.2629C58.2423 42.5385 58.2218 42.4566 58.1909 42.3952C58.1292 42.2827 58.0366 42.2315 57.9131 42.2315C57.8617 42.2315 57.8102 42.252 57.7691 42.2827C57.7279 42.3134 57.7074 42.3645 57.7074 42.4259C57.7074 42.4771 57.7176 42.518 57.7382 42.559C57.7588 42.5999 57.8 42.6613 57.872 42.7636L58.0057 42.9478C58.0674 43.0501 58.1189 43.1218 58.1498 43.1832C58.1806 43.2446 58.1909 43.306 58.1909 43.3776C58.1909 43.5106 58.1395 43.6232 58.0263 43.7153C57.9131 43.8074 57.7794 43.8483 57.625 43.8483C57.5736 43.8483 57.5016 43.8381 57.409 43.8176C57.3164 43.7972 57.265 43.7869 57.2444 43.7869C57.2238 43.7869 57.2032 43.7972 57.1929 43.8074C57.1827 43.8176 57.1724 43.8381 57.1621 43.8585H57.1003L57.1621 43.2548Z" fill="#334D9C"/>
</g>
<path d="M131.444 38.1441C131.172 38.7836 130.804 39.3279 130.342 39.8041C129.879 40.2668 129.322 40.6477 128.682 40.9063C128.043 41.1784 127.363 41.3145 126.642 41.3145H116.602V36.1984H118.956V38.9333H126.628C127.431 38.9333 128.097 38.6612 128.641 38.1169C129.199 37.559 129.458 36.8787 129.458 36.1031V33.3274H116.575V28.2113C116.575 27.4902 116.725 26.8234 116.983 26.1703C117.255 25.5308 117.622 24.9866 118.085 24.5103C118.547 24.0477 119.105 23.6667 119.745 23.4082C120.384 23.1361 121.064 23 121.785 23H131.825V27.1364H129.471V25.3539H121.799C121.404 25.3539 121.023 25.422 120.697 25.5853C120.357 25.7349 120.057 25.939 119.799 26.1975C119.554 26.4425 119.336 26.7554 119.187 27.1092C119.024 27.463 118.956 27.8439 118.956 28.2385V30.9735H131.838V36.1031C131.865 36.8243 131.716 37.5046 131.444 38.1441Z" fill="white"/>
<path d="M138.667 41.328C137.987 41.328 137.348 41.2056 136.735 40.9334C136.123 40.6613 135.593 40.3075 135.144 39.8449C134.681 39.3823 134.328 38.8652 134.056 38.2529C133.783 37.6406 133.661 37.0011 133.661 36.3208V28.048C133.661 27.3677 133.783 26.7282 134.056 26.1159C134.328 25.5036 134.681 24.9729 135.144 24.5239C135.606 24.0613 136.123 23.7075 136.735 23.4354C137.348 23.1632 137.987 23.0408 138.667 23.0408H145.619C146.299 23.0408 146.938 23.1632 147.55 23.4354C148.162 23.7075 148.693 24.0613 149.142 24.5239C149.604 24.9865 149.958 25.5036 150.23 26.1159C150.502 26.7282 150.625 27.3677 150.625 28.048V36.3208C150.625 37.0011 150.502 37.6406 150.23 38.2529C149.958 38.8652 149.604 39.3959 149.142 39.8449C148.679 40.3075 148.162 40.6613 147.55 40.9334C146.938 41.2056 146.299 41.328 145.619 41.328H138.667ZM135.987 36.3072C135.987 36.661 136.055 37.0011 136.205 37.3277C136.355 37.6542 136.545 37.94 136.79 38.1849C137.035 38.4298 137.32 38.6339 137.647 38.77C137.973 38.9197 138.313 38.9877 138.667 38.9877H145.619C145.972 38.9877 146.34 38.9197 146.652 38.77C146.993 38.6203 147.278 38.4298 147.509 38.1849C147.741 37.94 147.945 37.6542 148.081 37.3277C148.23 37.0011 148.298 36.661 148.298 36.3072V28.0208C148.298 27.667 148.23 27.2996 148.081 26.9867C147.931 26.6465 147.741 26.3608 147.509 26.1295C147.278 25.8982 146.993 25.6941 146.652 25.558C146.312 25.4219 145.972 25.3403 145.619 25.3403H138.667C138.313 25.3403 137.973 25.4083 137.647 25.558C137.32 25.7077 137.035 25.8982 136.79 26.1295C136.545 26.3608 136.341 26.6465 136.205 26.9867C136.055 27.3268 135.987 27.667 135.987 28.0208V36.3072Z" fill="white"/>
<path d="M155.604 40.9199C154.978 40.6478 154.447 40.294 153.998 39.8314C153.536 39.3688 153.182 38.8245 152.91 38.2258C152.638 37.6135 152.516 36.9332 152.516 36.2393V23.0137H154.869V36.2393C154.869 36.6203 154.937 36.974 155.087 37.3006C155.236 37.6271 155.427 37.9129 155.672 38.1578C155.917 38.4027 156.202 38.6068 156.529 38.7429C156.855 38.8926 157.209 38.9606 157.59 38.9606H164.949V41.3145H157.59C156.869 41.3281 156.229 41.1785 155.604 40.9199Z" fill="white"/>
<path d="M169.098 41.3281H166.745V23H169.098V41.3281Z" fill="white"/>
<path d="M174.064 40.9199C173.438 40.6477 172.88 40.294 172.418 39.8313C171.955 39.3687 171.574 38.8109 171.329 38.185C171.057 37.559 170.935 36.8923 170.935 36.1848V28.1025C170.935 27.4085 171.057 26.7418 171.329 26.1159C171.601 25.49 171.955 24.9593 172.418 24.4831C172.88 24.0205 173.438 23.6395 174.064 23.3946C174.689 23.1225 175.356 23 176.063 23H184.484V25.3403H176.063C175.682 25.3403 175.329 25.4084 174.975 25.558C174.635 25.7077 174.336 25.8982 174.104 26.1431C173.86 26.388 173.656 26.701 173.519 27.0139C173.37 27.3541 173.302 27.7079 173.302 28.0889V36.1712C173.302 36.9604 173.574 37.5999 174.104 38.1441C174.635 38.6884 175.288 38.9469 176.077 38.9469H184.498V41.3009H176.077C175.356 41.3281 174.689 41.1784 174.064 40.9199Z" fill="#FDD413"/>
<path d="M191.299 41.328C190.619 41.328 189.98 41.2056 189.368 40.9334C188.756 40.6613 188.225 40.3075 187.776 39.8449C187.314 39.3823 186.96 38.8652 186.688 38.2529C186.416 37.6406 186.293 37.0011 186.293 36.3208V28.048C186.293 27.3677 186.416 26.7282 186.688 26.1159C186.96 25.5036 187.314 24.9729 187.776 24.5239C188.239 24.0613 188.756 23.7075 189.368 23.4354C189.98 23.1632 190.619 23.0408 191.299 23.0408H198.251C198.931 23.0408 199.57 23.1632 200.196 23.4354C200.808 23.7075 201.339 24.0613 201.788 24.5239C202.25 24.9865 202.604 25.5036 202.876 26.1159C203.148 26.7282 203.271 27.3677 203.271 28.048V36.3208C203.271 37.0011 203.148 37.6406 202.876 38.2529C202.604 38.8652 202.25 39.3959 201.788 39.8449C201.325 40.3075 200.808 40.6613 200.196 40.9334C199.584 41.2056 198.945 41.328 198.251 41.328H191.299ZM188.62 36.3072C188.62 36.661 188.688 37.0011 188.837 37.3277C188.987 37.6542 189.177 37.94 189.422 38.1849C189.667 38.4298 189.953 38.6339 190.279 38.77C190.606 38.9061 190.946 38.9877 191.299 38.9877H198.251C198.605 38.9877 198.972 38.9197 199.285 38.77C199.625 38.6203 199.911 38.4298 200.142 38.1849C200.373 37.94 200.577 37.6542 200.713 37.3277C200.849 37.0011 200.931 36.661 200.931 36.3072V28.0208C200.931 27.667 200.863 27.2996 200.713 26.9867C200.563 26.6465 200.373 26.3608 200.142 26.1295C199.911 25.8982 199.625 25.6941 199.285 25.558C198.945 25.4083 198.605 25.3403 198.251 25.3403H191.299C190.946 25.3403 190.606 25.4083 190.279 25.558C189.953 25.7077 189.667 25.8982 189.422 26.1295C189.177 26.3608 188.973 26.6465 188.837 26.9867C188.688 27.3268 188.62 27.667 188.62 28.0208V36.3072Z" fill="#FDD413"/>
<path d="M220.438 36.212C220.438 36.9059 220.316 37.5727 220.044 38.1986C219.772 38.8245 219.418 39.3551 218.955 39.8313C218.493 40.294 217.935 40.675 217.309 40.9199C216.684 41.192 216.017 41.3145 215.31 41.3145H205.121V23H215.31C216.003 23 216.684 23.1225 217.309 23.3946C217.935 23.6667 218.493 24.0205 218.955 24.4831C219.418 24.9457 219.799 25.49 220.044 26.1159C220.316 26.7418 220.438 27.4085 220.438 28.1025V36.212ZM207.488 38.9469H215.31C216.099 38.9469 216.738 38.6748 217.282 38.1441C217.813 37.6135 218.085 36.9604 218.085 36.212V28.1161C218.085 27.7351 218.017 27.3813 217.867 27.0412C217.718 26.701 217.527 26.4153 217.282 26.1703C217.037 25.9254 216.752 25.7077 216.412 25.5853C216.071 25.4356 215.718 25.3675 215.323 25.3675H207.515V38.9469H207.488Z" fill="#FDD413"/>
<path d="M234.613 41.328H222.248V33.341V30.987V28.2521C222.248 27.5309 222.397 26.8642 222.656 26.2111C222.928 25.5716 223.295 25.0273 223.758 24.5511C224.22 24.0885 224.778 23.7075 225.417 23.449C226.057 23.1768 226.737 23.0408 227.458 23.0408H234.613V25.3811H227.458C227.063 25.3811 226.682 25.4491 226.356 25.6124C226.016 25.7621 225.716 25.9662 225.458 26.2247C225.213 26.4696 224.995 26.7826 224.846 27.1364C224.683 27.4901 224.615 27.8711 224.615 28.2657V31.0006H232.913V33.3546H224.615V38.9741H234.627V41.3552H234.613V41.328Z" fill="#FDD413"/>
<path d="M100.047 38.1848V34.4294C100.047 33.9532 99.9242 33.6538 99.693 33.5314C99.4617 33.4089 99.0264 33.3545 98.4006 33.3545V30.6196C99.0264 30.6196 99.4617 30.5651 99.693 30.4427C99.9242 30.3202 100.047 30.0073 100.047 29.5447V26.143C100.047 24.8232 100.319 23.9387 100.849 23.5033C101.121 23.2856 101.475 23.1223 101.938 23.0271H93V41.3416H101.924C101.461 41.2327 101.108 41.0694 100.836 40.8653C100.305 40.4027 100.047 39.5047 100.047 38.1848Z" fill="#FDD413"/>
<path d="M111.31 23H105.91V25.3948H103.407C103.23 25.3948 103.08 25.4084 103.012 25.4628C102.944 25.5172 102.89 25.6261 102.89 25.8166V29.5312C102.89 30.7694 102.495 31.5858 101.706 32.0212C102.495 32.4158 102.89 33.2322 102.89 34.484V38.4707C102.89 38.6476 102.931 38.77 103.012 38.8245C103.08 38.8789 103.23 38.8925 103.407 38.8925H105.91V41.2873H111.31V23Z" fill="#FDD413"/>
<defs>
<linearGradient id="paint0_linear_348_2680" x1="9.57544" y1="32.621" x2="65.2384" y2="32.621" gradientUnits="userSpaceOnUse">
<stop stop-color="#F4F7F6"/>
<stop offset="1" stop-color="#E8F0F4"/>
</linearGradient>
<linearGradient id="paint1_linear_348_2680" x1="14.8193" y1="35.9211" x2="53.4167" y2="30.2208" gradientUnits="userSpaceOnUse">
<stop stop-color="#E6E9EB"/>
<stop offset="1" stop-color="#FCFCFC"/>
</linearGradient>
<clipPath id="clip0_348_2680">
<rect width="71" height="65" fill="white"/>
</clipPath>
</defs>
</svg>
